<?xml version="1.0" ?><svg style="enable-background:new 0 0 64 64;" version="1.1" viewBox="0 0 64 64" xml:space="preserve" xmlns="http://www.w3.org/2000/svg" xmlns:xlink="http://www.w3.org/1999/xlink"><style type="text/css">
	.st0{enable-background:new    ;}
	.st1{fill-rule:evenodd;clip-rule:evenodd;fill:#A4C3FF;}
	.st2{fill-rule:evenodd;clip-rule:evenodd;fill:#54596E;}
	.st3{fill-rule:evenodd;clip-rule:evenodd;fill:#FFFFFF;}
	.st4{fill-rule:evenodd;clip-rule:evenodd;fill:#FF6669;}
	.st5{fill-rule:evenodd;clip-rule:evenodd;fill:#B0E7A7;}
	.st6{fill-rule:evenodd;clip-rule:evenodd;fill:#FFC483;}
</style><g class="st0" id="Rectangle_2_1_"/><g id="coloured_in_1_"><g id="twitter_3_"/><g id="instagram_3_"/><g id="youtube_3_"/><g id="whatsapp_3_"/><g id="facebook_3_"/><g id="reddit_3_"/><g id="telegram_3_"><g id="Shape_22"><g><path class="st1" d="M62.7,33.5c0.1-1.7,0.3-3.4,0.3-5.1c-0.1-5.9-3.9-11.1-7.5-15.7c-2.4-3.1-5-6.2-8.4-8      c-1.7-0.9-3.6-1.4-5.5-1.9c-7.2-1.8-15.1-3-21.9,0.1c-3.1,1.4-5.7,3.7-8.3,5.9c-0.3,0.3-1.7,1.3-1.7,1.3c-3.1,2.9-4.7,7-6.2,11      c-0.8,2.3-1.6,4.6-2.1,7C0.8,32.1,1.1,36.1,2,40c1.6,6.4,5,12.2,9.6,16.7c1.3,1.3,2.8,2.5,4.4,3.3c2.5,1.3,5.3,1.8,8,2.2      c6.7,1,13.6,1.3,20-1c8.3-3,14.7-10.3,17.7-18.7c0.4-1,0.7-2,0.8-3C62.9,37.6,62.7,35.5,62.7,33.5z"/></g></g><g id="Shape_23"><g><path class="st3" d="M42.2,21.9c-9.2,3.9-18.6,7.4-28,10.7c-0.6,0.2-1.2,0.6-1.1,1.2c0.1,0.2,0.3,0.4,0.5,0.5      c1.9,1.2,4,1.9,6.2,2.6c0.9,0.3,1.9,0.9,2.9,0.9c-0.2,0.4-0.3,0.7-0.3,0.7c0.6,3.1,1.4,6.2,2.3,9.2c0.9-0.6,5-4.6,5.4-5.9      c0.3,0.1,2,1.1,3.2,1.8c2.6,1.6,4.4,4.1,6.8,6c0.3,0.2,0.7,0.4,0.9,0.2c0.1-0.1,0.2-0.3,0.2-0.4c1.2-4.6,2.2-9.3,3.2-14      c1.1-5,2-10.1,3.7-15l0,0C46.5,20.7,43.6,21.3,42.2,21.9z"/></g></g><g id="Shape_21"><g><path class="st2" d="M48.3,18.6c-0.2-0.1-0.5-0.1-0.8-0.1c-7.1,1.4-13.7,4.8-20.4,7.4c-3.8,1.4-7.6,2.8-11.3,4.1      c-1.9,0.7-3.2,0.9-3.9,2.8c-0.2,0.5,0,1.1,0.4,1.5c1.6,1.8,5.7,3.7,8.9,4.2c0.7,3,1.4,6,2.3,9c0.3,1,1.2,1.3,2,0.9      c0.2-0.1,0.4-0.2,0.6-0.3c1.7-1.4,3.5-2.8,5.3-4.1c2.1,1.4,4.2,2.8,6,4.6c1.2,1.1,3,3.2,4.7,1.7c0.9-0.8,1-2.6,1.2-3.7      c0.6-2.6,1.2-5.2,1.8-7.8c1.3-6,2.4-12.1,4.3-18c0.1-0.2,0.1-0.4,0.2-0.6C49.6,19.4,49,18.8,48.3,18.6z M26.4,37.9      c-0.2,0.1-0.3,0.3-0.4,0.6c0,0.1,0,0.1-0.1,0.2c0,0,0,0.1,0,0.1c-0.3,1.1-0.6,2.2-0.9,3.2c-0.3-1.2-0.6-2.3-0.8-3.5      c1.2-0.3,2.4-1,3.5-1.7C27.2,37.1,26.8,37.6,26.4,37.9z M27.8,43c0.1-0.4,0.2-0.7,0.3-1.1c0.2,0.1,0.4,0.3,0.6,0.4      C28.4,42.5,28.1,42.7,27.8,43z M40.9,43.3c-0.1,0.2-0.5,3.5-1,3.8c-0.3,0.1-2.7-2.7-3.2-3.2c-2.2-1.9-4.8-3-7.1-4.8      c2.9-2.8,5.3-5.9,8.1-8.8c0.1-0.1,0.1-0.2,0.2-0.2c0.7-0.5,1.4-0.9,2.1-1.4c1.6-1,0.1-3.7-1.5-2.6c-4.4,2.8-8.7,6.6-13.4,8.6      c-2.5,1.1-5.1,0.7-7.5-0.7c-2-1.2-1.3-0.3,0-1.2c1-0.7,3.3-1.2,4.4-1.6c7.9-2.9,15.8-6.9,23.9-9.1C43.7,29,42.6,36.2,40.9,43.3z       M63.5,24.2C61.8,18,56.9,12,52.5,7.6c-5.3-5.3-13.1-6.8-20.3-7.4c-8.7-0.7-15.1,2.5-21.6,8c0,0-0.1,0.1-0.1,0.1      c-9.4,7.6-12.6,23-8.9,34.3c2,6.2,5.7,12.1,10.8,16.2c5.3,4.3,12.5,5.1,19.1,5.3c13.6,0.4,25.3-6.6,30.7-19.5      c1.3-3.1,1.6-5.7,1.7-9.1C63.9,31.7,64.5,27.9,63.5,24.2z M61.1,31.1c-0.3-0.2-0.6-0.5-0.9-0.7c-0.6-0.5-1.5-0.6-2.1,0      c-0.5,0.5-0.6,1.6,0,2.2c0.6,0.5,1.2,0.9,1.7,1.4c0.3,0.3,0.7,0.4,1.1,0.4c0,0.4,0,0.8,0,1.1c0,0.5,0,0.9-0.1,1.4      c-0.9-0.9-1.9-1.7-2.9-2.5c-0.6-0.5-1.7-0.1-2,0.5c-0.4,0.8-0.1,1.6,0.5,2.1c1.2,0.9,2.3,1.9,3.3,3c0.2,0.2,0.3,0.3,0.5,0.3      c-0.1,0.5-0.2,1-0.4,1.4c-0.8-0.7-1.5-1.5-2.3-2.1c-0.6-0.5-1.5-0.6-2.1,0c-0.5,0.5-0.6,1.6,0,2.2c1,0.8,2,1.7,2.9,2.6      c0.1,0.1,0.3,0.2,0.5,0.3c-0.2,0.5-0.5,1.1-0.8,1.6c-1.1-0.9-2.3-1.8-3.5-2.6c-1.6-1.1-3.1,1.6-1.5,2.6c1.2,0.8,2.3,1.7,3.5,2.6      c-0.4,0.6-0.8,1.2-1.3,1.8c-1.4-1.2-2.7-2.3-4.1-3.5c-0.6-0.5-1.5-0.6-2.1,0c-0.5,0.5-0.6,1.6,0,2.2c1.4,1.2,2.8,2.4,4.2,3.6      c-0.4,0.4-0.7,0.8-1.1,1.1c-1.3-1.2-2.5-2.4-3.8-3.6c-1.4-1.3-3.5,0.8-2.1,2.2c1.2,1.1,2.4,2.2,3.6,3.3c-0.6,0.5-1.3,0.9-2,1.3      c0,0,0,0,0,0c-1.4-1.2-2.9-2.4-4.3-3.6c-0.6-0.5-1.5-0.6-2.1,0c-0.5,0.5-0.6,1.6,0,2.2c1.2,1,2.3,2,3.5,3      c-0.8,0.3-1.7,0.7-2.6,0.9c0-0.3-0.2-0.6-0.4-0.8c-1.5-1.3-2.9-2.6-4.2-4.1c-1.3-1.4-3.4,0.7-2.1,2.2c1.1,1.2,2.3,2.3,3.5,3.4      c-1.1,0.2-2.1,0.3-3.2,0.4c-1.2-1.6-2.3-3.3-3.5-4.9c-1.1-1.6-3.7,0-2.6,1.5c0.8,1.2,1.7,2.3,2.5,3.5c-0.9,0-1.7,0-2.6-0.1      c0,0,0,0-0.1,0c0.1-0.5,0-1.1-0.4-1.5c-0.6-0.7-1.2-1.4-1.7-2.2c-0.5-0.6-1.6-0.5-2.1,0c-0.6,0.6-0.5,1.5,0,2.2      c0.3,0.4,0.6,0.8,0.9,1.2c-7.1-0.9-12.7-3.5-17.3-9.9c-4.2-5.8-6.7-13.3-5.9-20.6c0.7-6.8,3.8-15.3,9.3-19.5      c0,0,0.1-0.1,0.1-0.1c0.1,0,0.1-0.1,0.2-0.1c7.2-6.1,14-8.3,23.3-6.6c3.3,0.6,7.1,1.2,10.1,2.8c3.3,1.7,5.7,4.7,8,7.6      c2.4,3,5.1,6.4,6.2,10.1C61.1,26.5,61.1,28.8,61.1,31.1z"/></g></g></g><g id="nextdoor_3_"/><g id="linkedin_3_"/><g id="pinterest_3_"/></g><g id="outlines_1_"><g id="twitter_2_"/><g id="instagram_2_"/><g id="youtube_2_"/><g id="whatsapp_2_"/><g id="facebook_2_"/><g id="reddit_2_"/><g id="telegram_2_"/><g id="nextdoor_2_"/><g id="linkedin_2_"/><g id="pinterest_2_"/></g></svg>